v 3.000000 -1.000000 -1.000000
v 3.250000 -1.000000 0.000000
v 3.000000 -1.000000 1.000000
v 2.000000 -1.000000 1.250000
v 1.000000 -1.000000 1.000000
v 0.750000 -1.000000 0.000000
v 1.000000 -1.000000 -1.000000
v 2.000000 -1.000000 -1.250000
v 3.120185 0.276983 -1.000000
v 3.368981 0.252479 0.000000
v 3.120185 0.276983 1.000000
v 2.125000 0.375000 1.250000
v 1.129815 0.473017 1.000000
v 0.881019 0.497521 0.000000
v 1.129815 0.473017 -1.000000
v 2.125000 0.375000 -1.250000
v 3.000000 2.000000 -1.000000
v 3.250000 2.000000 0.000000
v 3.000000 2.000000 1.000000
v 2.000000 2.000000 1.250000
v 1.000000 2.000000 1.000000
v 0.750000 2.000000 0.000000
v 1.000000 2.000000 -1.000000
v 2.000000 2.000000 -1.250000
v 1.898011 3.946893 -1.000000
v 2.091263 4.105491 0.000000
v 1.898011 3.946893 1.000000
v 1.125000 3.312500 1.250000
v 0.351989 2.678107 1.000000
v 0.158737 2.519509 0.000000
v 0.351989 2.678107 -1.000000
v 1.125000 3.312500 -1.250000
v 0.000000 5.000000 -1.000000
v 0.000000 5.250000 0.000000
v 0.000000 5.000000 1.000000
v 0.000000 4.000000 1.250000
v -0.000000 3.000000 1.000000
v -0.000000 2.750000 0.000000
v -0.000000 3.000000 -1.000000
v 0.000000 4.000000 -1.250000
v -1.898010 3.946894 -1.000000
v -2.091263 4.105492 0.000000
v -1.898010 3.946894 1.000000
v -1.125000 3.312500 1.250000
v -0.351990 2.678106 1.000000
v -0.158737 2.519508 0.000000
v -0.351990 2.678106 -1.000000
v -1.125000 3.312500 -1.250000
v -3.000000 2.000001 -1.000000
v -3.250000 2.000001 0.000000
v -3.000000 2.000001 1.000000
v -2.000000 2.000000 1.250000
v -1.000000 1.999999 1.000000
v -0.750000 1.999999 0.000000
v -1.000000 1.999999 -1.000000
v -2.000000 2.000000 -1.250000
v -3.120185 0.276984 -1.000000
v -3.368981 0.252479 0.000000
v -3.120185 0.276984 1.000000
v -2.125000 0.375000 1.250000
v -1.129815 0.473016 1.000000
v -0.881019 0.497521 0.000000
v -1.129815 0.473016 -1.000000
v -2.125000 0.375000 -1.250000
v -3.000000 -0.999999 -1.000000
v -3.250000 -0.999999 0.000000
v -3.000000 -0.999999 1.000000
v -2.000000 -1.000000 1.250000
v -1.000000 -1.000001 1.000000
v -0.750000 -1.000001 0.000000
v -1.000000 -1.000001 -1.000000
v -2.000000 -1.000000 -1.250000
vn 0.483357 -0.045232 -0.727193
vn 0.965989 -0.091482 -0.080851
vn 0.724799 -0.068499 0.484645
vn 0.080514 -0.007579 0.969979
vn -0.483568 0.042841 0.727233
vn -0.966579 0.084772 0.080836
vn -0.725182 0.063704 -0.484704
vn -0.080517 0.007095 -0.969990
vn 0.604970 -0.017009 -0.605465
vn 0.967170 -0.012500 -0.000072
vn 0.605282 0.002481 0.605543
vn -0.000034 0.006377 0.969790
vn -0.605018 0.011548 0.605371
vn -0.966875 0.000563 0.000016
vn -0.605041 -0.009823 -0.605349
vn -0.000045 -0.007244 -0.969764
vn 0.580493 0.152081 -0.598486
vn 0.910264 0.269984 0.000342
vn 0.566117 0.198093 0.599253
vn -0.006956 0.015119 0.966309
vn -0.550576 -0.199111 0.592645
vn -0.817419 -0.400212 0.002649
vn -0.507315 -0.293178 -0.588440
vn 0.007628 -0.030699 -0.963647
vn 0.442428 0.396856 -0.595855
vn 0.660129 0.663435 -0.000046
vn 0.392610 0.447551 0.595886
vn -0.012225 0.009357 0.964934
vn -0.422195 -0.458119 0.590233
vn -0.710544 -0.661535 -0.004384
vn -0.461431 -0.414683 -0.591591
vn 0.012050 -0.009442 -0.965460
vn 0.054718 0.545026 -0.590169
vn 0.000000 0.855216 -0.000000
vn -0.054718 0.545026 0.590169
vn -0.053926 0.000598 0.960221
vn -0.118588 -0.443505 0.573061
vn 0.000001 -0.612551 0.000000
vn 0.118589 -0.443505 -0.573061
vn 0.053926 0.000598 -0.960221
vn -0.392610 0.447551 -0.595886
vn -0.660128 0.663435 0.000046
vn -0.442428 0.396857 0.595855
vn -0.012050 -0.009442 0.965460
vn 0.461431 -0.414683 0.591590
vn 0.710545 -0.661534 0.004384
vn 0.422195 -0.458119 -0.590233
vn 0.012225 0.009357 -0.964934
vn -0.566117 0.198093 -0.599253
vn -0.910264 0.269984 -0.000342
vn -0.580493 0.152081 0.598486
vn -0.007628 -0.030699 0.963647
vn 0.507315 -0.293178 0.588441
vn 0.817419 -0.400212 -0.002649
vn 0.550576 -0.199111 -0.592645
vn 0.006956 0.015119 -0.966309
vn -0.605282 0.002481 -0.605543
vn -0.967170 -0.012500 0.000072
vn -0.604970 -0.017009 0.605465
vn 0.000045 -0.007244 0.969764
vn 0.605041 -0.009823 0.605349
vn 0.966875 0.000563 -0.000016
vn 0.605018 0.011548 -0.605371
vn 0.000034 0.006377 -0.969790
vn -0.724799 -0.068499 -0.484645
vn -0.965989 -0.091482 0.080851
vn -0.483357 -0.045233 0.727193
vn 0.080517 0.007095 0.969990
vn 0.725182 0.063704 0.484704
vn 0.966579 0.084772 -0.080836
vn 0.483568 0.042841 -0.727233
vn -0.080514 -0.007579 -0.969979
vn 0.000000 -0.500000 0.000000
vn 0.000000 -2.000000 0.000000
vn 0.000000 -2.500000 0.000000
vn 0.000000 -2.500000 0.000000
vn 0.000000 -2.000000 0.000000
vn -0.000000 -0.500000 0.000000
vn -0.000000 -0.500000 0.000000
vn -0.000001 -2.000000 0.000000
vn -0.000002 -2.500000 0.000000
vn -0.000002 -2.500000 -0.000000
vn -0.000001 -2.000000 0.000000
vn -0.000000 -0.500000 -0.000000
f 8//8 16//16 1//1
f 9//9 1//1 16//16
f 1//1 9//9 2//2
f 10//10 2//2 9//9
f 2//2 10//10 3//3
f 11//11 3//3 10//10
f 3//3 11//11 4//4
f 12//12 4//4 11//11
f 4//4 12//12 5//5
f 13//13 5//5 12//12
f 5//5 13//13 6//6
f 14//14 6//6 13//13
f 6//6 14//14 7//7
f 15//15 7//7 14//14
f 7//7 15//15 8//8
f 16//16 8//8 15//15
f 16//16 24//24 9//9
f 17//17 9//9 24//24
f 9//9 17//17 10//10
f 18//18 10//10 17//17
f 10//10 18//18 11//11
f 19//19 11//11 18//18
f 11//11 19//19 12//12
f 20//20 12//12 19//19
f 12//12 20//20 13//13
f 21//21 13//13 20//20
f 13//13 21//21 14//14
f 22//22 14//14 21//21
f 14//14 22//22 15//15
f 23//23 15//15 22//22
f 15//15 23//23 16//16
f 24//24 16//16 23//23
f 24//24 32//32 17//17
f 25//25 17//17 32//32
f 17//17 25//25 18//18
f 26//26 18//18 25//25
f 18//18 26//26 19//19
f 27//27 19//19 26//26
f 19//19 27//27 20//20
f 28//28 20//20 27//27
f 20//20 28//28 21//21
f 29//29 21//21 28//28
f 21//21 29//29 22//22
f 30//30 22//22 29//29
f 22//22 30//30 23//23
f 31//31 23//23 30//30
f 23//23 31//31 24//24
f 32//32 24//24 31//31
f 32//32 40//40 25//25
f 33//33 25//25 40//40
f 25//25 33//33 26//26
f 34//34 26//26 33//33
f 26//26 34//34 27//27
f 35//35 27//27 34//34
f 27//27 35//35 28//28
f 36//36 28//28 35//35
f 28//28 36//36 29//29
f 37//37 29//29 36//36
f 29//29 37//37 30//30
f 38//38 30//30 37//37
f 30//30 38//38 31//31
f 39//39 31//31 38//38
f 31//31 39//39 32//32
f 40//40 32//32 39//39
f 40//40 48//48 33//33
f 41//41 33//33 48//48
f 33//33 41//41 34//34
f 42//42 34//34 41//41
f 34//34 42//42 35//35
f 43//43 35//35 42//42
f 35//35 43//43 36//36
f 44//44 36//36 43//43
f 36//36 44//44 37//37
f 45//45 37//37 44//44
f 37//37 45//45 38//38
f 46//46 38//38 45//45
f 38//38 46//46 39//39
f 47//47 39//39 46//46
f 39//39 47//47 40//40
f 48//48 40//40 47//47
f 48//48 56//56 41//41
f 49//49 41//41 56//56
f 41//41 49//49 42//42
f 50//50 42//42 49//49
f 42//42 50//50 43//43
f 51//51 43//43 50//50
f 43//43 51//51 44//44
f 52//52 44//44 51//51
f 44//44 52//52 45//45
f 53//53 45//45 52//52
f 45//45 53//53 46//46
f 54//54 46//46 53//53
f 46//46 54//54 47//47
f 55//55 47//47 54//54
f 47//47 55//55 48//48
f 56//56 48//48 55//55
f 56//56 64//64 49//49
f 57//57 49//49 64//64
f 49//49 57//57 50//50
f 58//58 50//50 57//57
f 50//50 58//58 51//51
f 59//59 51//51 58//58
f 51//51 59//59 52//52
f 60//60 52//52 59//59
f 52//52 60//60 53//53
f 61//61 53//53 60//60
f 53//53 61//61 54//54
f 62//62 54//54 61//61
f 54//54 62//62 55//55
f 63//63 55//55 62//62
f 55//55 63//63 56//56
f 64//64 56//56 63//63
f 64//64 72//72 57//57
f 65//65 57//57 72//72
f 57//57 65//65 58//58
f 66//66 58//58 65//65
f 58//58 66//66 59//59
f 67//67 59//59 66//66
f 59//59 67//67 60//60
f 68//68 60//60 67//67
f 60//60 68//68 61//61
f 69//69 61//61 68//68
f 61//61 69//69 62//62
f 70//70 62//62 69//69
f 62//62 70//70 63//63
f 71//71 63//63 70//70
f 63//63 71//71 64//64
f 72//72 64//64 71//71
f 1//73 2//73 3//73
f 1//74 3//74 4//74
f 1//75 4//75 5//75
f 1//76 5//76 6//76
f 1//77 6//77 7//77
f 1//78 7//78 8//78
f 65//79 67//79 66//79
f 65//80 68//80 67//80
f 65//81 69//81 68//81
f 65//82 70//82 69//82
f 65//83 71//83 70//83
f 65//84 72//84 71//84
