v -0.004750 -1.200000 -0.005000
v -0.000583 -1.200000 -0.008333
v 0.000583 -1.200000 -0.008333
v 0.004750 -1.200000 -0.005000
v 0.008500 -1.200000 -0.000833
v 0.009000 -1.200000 0.004000
v 0.004917 -1.200000 0.007333
v 0.000583 -1.200000 0.004833
v -0.000583 -1.200000 0.004833
v -0.004917 -1.200000 0.007333
v -0.009000 -1.200000 0.004000
v -0.008500 -1.200000 -0.000833
v -0.570000 -1.000000 -0.600000
v -0.070000 -1.000000 -1.000000
v 0.070000 -1.000000 -1.000000
v 0.570000 -1.000000 -0.600000
v 1.020000 -1.000000 -0.100000
v 1.080000 -1.000000 0.480000
v 0.590000 -1.000000 0.880000
v 0.070000 -1.000000 0.580000
v -0.070000 -1.000000 0.580000
v -0.590000 -1.000000 0.880000
v -1.080000 -1.000000 0.480000
v -1.020000 -1.000000 -0.100000
v -0.248205 -0.600000 -0.143301
v -0.143301 -0.600000 -0.248205
v 0.000000 -0.600000 -0.286602
v 0.143301 -0.600000 -0.248205
v 0.248205 -0.600000 -0.143301
v 0.286602 -0.600000 0.000000
v 0.248205 -0.600000 0.143301
v 0.143301 -0.600000 0.248205
v 0.000000 -0.600000 0.286602
v -0.143301 -0.600000 0.248205
v -0.248205 -0.600000 0.143301
v -0.286602 -0.600000 0.000000
v -0.100000 -0.400000 -0.238835
v -0.083333 -0.400000 -0.413675
v 0.000000 -0.400000 -0.477671
v 0.083333 -0.400000 -0.413675
v 0.100000 -0.400000 -0.238835
v 0.100000 -0.400000 0.000000
v 0.100000 -0.400000 0.238835
v 0.083333 -0.400000 0.413675
v 0.000000 -0.400000 0.477671
v -0.083333 -0.400000 0.413675
v -0.100000 -0.400000 0.238835
v -0.100000 -0.400000 0.000000
v -0.500000 -0.300000 -0.238835
v -0.500000 -0.283333 -0.413675
v -0.500000 -0.200000 -0.477671
v -0.500000 -0.116667 -0.413675
v -0.500000 -0.100000 -0.238835
v -0.500000 -0.100000 0.000000
v -0.500000 -0.100000 0.238835
v -0.500000 -0.116667 0.413675
v -0.500000 -0.200000 0.477671
v -0.500000 -0.283333 0.413675
v -0.500000 -0.300000 0.238835
v -0.500000 -0.300000 0.000000
v -1.000000 0.600000 -0.238835
v -0.983333 0.600000 -0.413675
v -0.900000 0.600000 -0.477671
v -0.816667 0.600000 -0.413675
v -0.800000 0.600000 -0.238835
v -0.800000 0.600000 0.000000
v -0.800000 0.600000 0.238835
v -0.816667 0.600000 0.413675
v -0.900000 0.600000 0.477671
v -0.983333 0.600000 0.413675
v -1.000000 0.600000 0.238835
v -1.000000 0.600000 0.000000
v -0.409983 1.399500 -0.238835
v -0.408319 1.382917 -0.413675
v -0.400000 1.300000 -0.477671
v -0.391681 1.217083 -0.413675
v -0.390017 1.200500 -0.238835
v -0.390017 1.200500 0.000000
v -0.390017 1.200500 0.238835
v -0.391681 1.217083 0.413675
v -0.400000 1.300000 0.477671
v -0.408319 1.382917 0.413675
v -0.409983 1.399500 0.238835
v -0.409983 1.399500 0.000000
v 0.409983 1.399500 -0.238835
v 0.408319 1.382917 -0.413675
v 0.400000 1.300000 -0.477671
v 0.391681 1.217083 -0.413675
v 0.390017 1.200500 -0.238835
v 0.390017 1.200500 0.000000
v 0.390017 1.200500 0.238835
v 0.391681 1.217083 0.413675
v 0.400000 1.300000 0.477671
v 0.408319 1.382917 0.413675
v 0.409983 1.399500 0.238835
v 0.409983 1.399500 0.000000
v 1.000000 0.600000 -0.238835
v 0.983333 0.600000 -0.413675
v 0.900000 0.600000 -0.477671
v 0.816667 0.600000 -0.413675
v 0.800000 0.600000 -0.238835
v 0.800000 0.600000 0.000000
v 0.800000 0.600000 0.238835
v 0.816667 0.600000 0.413675
v 0.900000 0.600000 0.477671
v 0.983333 0.600000 0.413675
v 1.000000 0.600000 0.238835
v 1.000000 0.600000 0.000000
v 0.500000 -0.300000 -0.238835
v 0.500000 -0.283333 -0.413675
v 0.500000 -0.200000 -0.477671
v 0.500000 -0.116667 -0.413675
v 0.500000 -0.100000 -0.238835
v 0.500000 -0.100000 0.000000
v 0.500000 -0.100000 0.238835
v 0.500000 -0.116667 0.413675
v 0.500000 -0.200000 0.477671
v 0.500000 -0.283333 0.413675
v 0.500000 -0.300000 0.238835
v 0.500000 -0.300000 0.000000
v 0.100000 -0.400000 -0.238835
v 0.083333 -0.400000 -0.413675
v 0.000000 -0.400000 -0.477671
v -0.083333 -0.400000 -0.413675
v -0.100000 -0.400000 -0.238835
v -0.100000 -0.400000 0.000000
v -0.100000 -0.400000 0.238835
v -0.083333 -0.400000 0.413675
v 0.000000 -0.400000 0.477671
v 0.083333 -0.400000 0.413675
v 0.100000 -0.400000 0.238835
v 0.100000 -0.400000 0.000000
vn -0.167136 -0.971389 -0.167738
vn -0.098943 -0.974333 -0.189578
vn 0.049471 -0.977298 -0.193639
vn 0.157775 -0.971379 -0.176627
vn 0.181684 -0.974660 -0.112521
vn 0.167625 -0.981524 0.035248
vn 0.013180 -0.960862 0.211376
vn -0.131987 -0.926957 0.338256
vn 0.065993 -0.935742 0.333346
vn 0.092400 -0.939517 0.277271
vn -0.143193 -0.981866 0.090365
vn -0.186871 -0.977921 -0.066195
vn -0.317128 -0.088844 -0.254583
vn -0.160889 -0.078072 -0.326429
vn 0.085083 -0.058140 -0.327635
vn 0.242566 -0.087364 -0.328299
vn 0.315319 -0.074699 -0.178722
vn 0.277550 -0.050310 0.068166
vn 0.041579 -0.059424 0.312538
vn 0.020034 -0.165578 0.496018
vn 0.174985 -0.184873 0.558178
vn -0.002858 -0.106399 0.369395
vn -0.258339 -0.043974 0.120653
vn -0.314698 -0.055228 -0.103172
vn -0.615291 0.626663 -0.328643
vn -0.410437 0.387102 -0.498046
vn -0.019928 0.095285 -0.615702
vn 0.407444 0.148630 -0.592783
vn 0.619709 0.542271 -0.263589
vn 0.607031 0.735378 0.052145
vn 0.520446 0.569387 0.375244
vn 0.456020 0.236589 0.631490
vn 0.172362 0.006968 0.692688
vn -0.354529 0.201354 0.536650
vn -0.592788 0.564146 0.225978
vn -0.638929 0.715405 -0.063528
vn -0.533065 -0.319480 -0.135158
vn -0.405494 -0.635270 -0.325656
vn 0.016409 -0.395762 -0.599341
vn 0.514334 0.351733 -0.449143
vn 0.618352 0.740882 -0.071215
vn 0.598965 0.771719 0.032044
vn 0.635347 0.612626 0.138405
vn 0.488242 0.266242 0.355109
vn 0.004482 -0.195390 0.626544
vn -0.467242 -0.434526 0.450039
vn -0.522393 -0.189644 0.069751
vn -0.496626 -0.160566 -0.032044
vn -0.562507 -0.725895 -0.026795
vn -0.541824 -0.638298 -0.308813
vn -0.028719 0.086040 -0.626410
vn 0.573479 0.570696 -0.365783
vn 0.681469 0.645041 -0.035123
vn 0.683179 0.644173 0.000000
vn 0.681019 0.644290 0.027591
vn 0.615153 0.570625 0.323437
vn 0.058902 -0.096996 0.619242
vn -0.484375 -0.618535 0.366830
vn -0.558036 -0.725904 0.036806
vn -0.558346 -0.727893 0.000000
vn -0.838848 0.055089 -0.034343
vn -0.727224 0.069072 -0.372704
vn 0.027272 0.134225 -0.688435
vn 0.737893 -0.057021 -0.390210
vn 0.870863 -0.085310 -0.037796
vn 0.872509 -0.084968 0.000000
vn 0.870658 -0.083271 0.033812
vn 0.751720 -0.077240 0.363781
vn -0.024606 -0.140020 0.687429
vn -0.715827 0.025951 0.390361
vn -0.838442 0.053556 0.037249
vn -0.839388 0.054075 0.000000
vn -0.401870 0.795354 -0.039098
vn -0.329604 0.673679 -0.403284
vn 0.095202 0.036517 -0.732968
vn 0.379231 -0.629943 -0.410211
vn 0.412679 -0.780262 -0.041679
vn 0.412937 -0.781927 0.000000
vn 0.411870 -0.781271 0.039072
vn 0.333497 -0.665988 0.404155
vn -0.091457 -0.034464 0.735141
vn -0.369020 0.641085 0.412544
vn -0.402035 0.795205 0.042116
vn -0.402309 0.796897 0.000000
vn 0.402035 0.795205 -0.042116
vn 0.369020 0.641085 -0.412544
vn 0.091457 -0.034464 -0.735141
vn -0.333497 -0.665988 -0.404155
vn -0.411870 -0.781271 -0.039071
vn -0.412937 -0.781927 0.000000
vn -0.412679 -0.780262 0.041679
vn -0.379231 -0.629943 0.410211
vn -0.095202 0.036517 0.732967
vn 0.329604 0.673679 0.403284
vn 0.401870 0.795354 0.039098
vn 0.402309 0.796897 0.000000
vn 0.838442 0.053556 -0.037249
vn 0.715827 0.025951 -0.390361
vn 0.024606 -0.140020 -0.687428
vn -0.751720 -0.077240 -0.363780
vn -0.870658 -0.083271 -0.033812
vn -0.872510 -0.084968 0.000000
vn -0.870863 -0.085310 0.037796
vn -0.737893 -0.057021 0.390210
vn -0.027272 0.134225 0.688435
vn 0.727224 0.069072 0.372703
vn 0.838848 0.055089 0.034343
vn 0.839387 0.054075 0.000000
vn 0.558036 -0.725904 -0.036806
vn 0.484375 -0.618535 -0.366830
vn -0.058902 -0.096997 -0.619241
vn -0.615153 0.570625 -0.323436
vn -0.681019 0.644290 -0.027591
vn -0.683179 0.644173 0.000000
vn -0.681469 0.645041 0.035123
vn -0.573480 0.570696 0.365782
vn 0.028719 0.086041 0.626410
vn 0.541824 -0.638298 0.308812
vn 0.562507 -0.725895 0.026795
vn 0.558346 -0.727893 0.000000
vn 0.251194 -0.966270 -0.039260
vn 0.257333 -0.799637 -0.414298
vn -0.094036 0.179246 -0.566814
vn -0.420621 0.857223 -0.207507
vn -0.447078 0.894157 -0.014197
vn -0.447214 0.894427 0.000000
vn -0.443112 0.894783 0.042188
vn -0.351517 0.772881 0.412505
vn 0.052255 -0.221497 0.512408
vn 0.255126 -0.945802 0.148600
vn 0.242514 -0.970056 0.007705
vn 0.242536 -0.970143 0.000000
f 12//12 24//24 1//1
f 13//13 1//1 24//24
f 1//1 13//13 2//2
f 14//14 2//2 13//13
f 2//2 14//14 3//3
f 15//15 3//3 14//14
f 3//3 15//15 4//4
f 16//16 4//4 15//15
f 4//4 16//16 5//5
f 17//17 5//5 16//16
f 5//5 17//17 6//6
f 18//18 6//6 17//17
f 6//6 18//18 7//7
f 19//19 7//7 18//18
f 7//7 19//19 8//8
f 20//20 8//8 19//19
f 8//8 20//20 9//9
f 21//21 9//9 20//20
f 9//9 21//21 10//10
f 22//22 10//10 21//21
f 10//10 22//22 11//11
f 23//23 11//11 22//22
f 11//11 23//23 12//12
f 24//24 12//12 23//23
f 24//24 36//36 13//13
f 25//25 13//13 36//36
f 13//13 25//25 14//14
f 26//26 14//14 25//25
f 14//14 26//26 15//15
f 27//27 15//15 26//26
f 15//15 27//27 16//16
f 28//28 16//16 27//27
f 16//16 28//28 17//17
f 29//29 17//17 28//28
f 17//17 29//29 18//18
f 30//30 18//18 29//29
f 18//18 30//30 19//19
f 31//31 19//19 30//30
f 19//19 31//31 20//20
f 32//32 20//20 31//31
f 20//20 32//32 21//21
f 33//33 21//21 32//32
f 21//21 33//33 22//22
f 34//34 22//22 33//33
f 22//22 34//34 23//23
f 35//35 23//23 34//34
f 23//23 35//35 24//24
f 36//36 24//24 35//35
f 36//36 48//48 25//25
f 37//37 25//25 48//48
f 25//25 37//37 26//26
f 38//38 26//26 37//37
f 26//26 38//38 27//27
f 39//39 27//27 38//38
f 27//27 39//39 28//28
f 40//40 28//28 39//39
f 28//28 40//40 29//29
f 41//41 29//29 40//40
f 29//29 41//41 30//30
f 42//42 30//30 41//41
f 30//30 42//42 31//31
f 43//43 31//31 42//42
f 31//31 43//43 32//32
f 44//44 32//32 43//43
f 32//32 44//44 33//33
f 45//45 33//33 44//44
f 33//33 45//45 34//34
f 46//46 34//34 45//45
f 34//34 46//46 35//35
f 47//47 35//35 46//46
f 35//35 47//47 36//36
f 48//48 36//36 47//47
f 48//48 60//60 37//37
f 49//49 37//37 60//60
f 37//37 49//49 38//38
f 50//50 38//38 49//49
f 38//38 50//50 39//39
f 51//51 39//39 50//50
f 39//39 51//51 40//40
f 52//52 40//40 51//51
f 40//40 52//52 41//41
f 53//53 41//41 52//52
f 41//41 53//53 42//42
f 54//54 42//42 53//53
f 42//42 54//54 43//43
f 55//55 43//43 54//54
f 43//43 55//55 44//44
f 56//56 44//44 55//55
f 44//44 56//56 45//45
f 57//57 45//45 56//56
f 45//45 57//57 46//46
f 58//58 46//46 57//57
f 46//46 58//58 47//47
f 59//59 47//47 58//58
f 47//47 59//59 48//48
f 60//60 48//48 59//59
f 60//60 72//72 49//49
f 61//61 49//49 72//72
f 49//49 61//61 50//50
f 62//62 50//50 61//61
f 50//50 62//62 51//51
f 63//63 51//51 62//62
f 51//51 63//63 52//52
f 64//64 52//52 63//63
f 52//52 64//64 53//53
f 65//65 53//53 64//64
f 53//53 65//65 54//54
f 66//66 54//54 65//65
f 54//54 66//66 55//55
f 67//67 55//55 66//66
f 55//55 67//67 56//56
f 68//68 56//56 67//67
f 56//56 68//68 57//57
f 69//69 57//57 68//68
f 57//57 69//69 58//58
f 70//70 58//58 69//69
f 58//58 70//70 59//59
f 71//71 59//59 70//70
f 59//59 71//71 60//60
f 72//72 60//60 71//71
f 72//72 84//84 61//61
f 73//73 61//61 84//84
f 61//61 73//73 62//62
f 74//74 62//62 73//73
f 62//62 74//74 63//63
f 75//75 63//63 74//74
f 63//63 75//75 64//64
f 76//76 64//64 75//75
f 64//64 76//76 65//65
f 77//77 65//65 76//76
f 65//65 77//77 66//66
f 78//78 66//66 77//77
f 66//66 78//78 67//67
f 79//79 67//67 78//78
f 67//67 79//79 68//68
f 80//80 68//68 79//79
f 68//68 80//80 69//69
f 81//81 69//69 80//80
f 69//69 81//81 70//70
f 82//82 70//70 81//81
f 70//70 82//82 71//71
f 83//83 71//71 82//82
f 71//71 83//83 72//72
f 84//84 72//72 83//83
f 84//84 96//96 73//73
f 85//85 73//73 96//96
f 73//73 85//85 74//74
f 86//86 74//74 85//85
f 74//74 86//86 75//75
f 87//87 75//75 86//86
f 75//75 87//87 76//76
f 88//88 76//76 87//87
f 76//76 88//88 77//77
f 89//89 77//77 88//88
f 77//77 89//89 78//78
f 90//90 78//78 89//89
f 78//78 90//90 79//79
f 91//91 79//79 90//90
f 79//79 91//91 80//80
f 92//92 80//80 91//91
f 80//80 92//92 81//81
f 93//93 81//81 92//92
f 81//81 93//93 82//82
f 94//94 82//82 93//93
f 82//82 94//94 83//83
f 95//95 83//83 94//94
f 83//83 95//95 84//84
f 96//96 84//84 95//95
f 96//96 108//108 85//85
f 97//97 85//85 108//108
f 85//85 97//97 86//86
f 98//98 86//86 97//97
f 86//86 98//98 87//87
f 99//99 87//87 98//98
f 87//87 99//99 88//88
f 100//100 88//88 99//99
f 88//88 100//100 89//89
f 101//101 89//89 100//100
f 89//89 101//101 90//90
f 102//102 90//90 101//101
f 90//90 102//102 91//91
f 103//103 91//91 102//102
f 91//91 103//103 92//92
f 104//104 92//92 103//103
f 92//92 104//104 93//93
f 105//105 93//93 104//104
f 93//93 105//105 94//94
f 106//106 94//94 105//105
f 94//94 106//106 95//95
f 107//107 95//95 106//106
f 95//95 107//107 96//96
f 108//108 96//96 107//107
f 108//108 120//120 97//97
f 109//109 97//97 120//120
f 97//97 109//109 98//98
f 110//110 98//98 109//109
f 98//98 110//110 99//99
f 111//111 99//99 110//110
f 99//99 111//111 100//100
f 112//112 100//100 111//111
f 100//100 112//112 101//101
f 113//113 101//101 112//112
f 101//101 113//113 102//102
f 114//114 102//102 113//113
f 102//102 114//114 103//103
f 115//115 103//103 114//114
f 103//103 115//115 104//104
f 116//116 104//104 115//115
f 104//104 116//116 105//105
f 117//117 105//105 116//116
f 105//105 117//117 106//106
f 118//118 106//106 117//117
f 106//106 118//118 107//107
f 119//119 107//107 118//118
f 107//107 119//119 108//108
f 120//120 108//108 119//119
f 120//120 132//132 109//109
f 121//121 109//109 132//132
f 109//109 121//121 110//110
f 122//122 110//110 121//121
f 110//110 122//122 111//111
f 123//123 111//111 122//122
f 111//111 123//123 112//112
f 124//124 112//112 123//123
f 112//112 124//124 113//113
f 125//125 113//113 124//124
f 113//113 125//125 114//114
f 126//126 114//114 125//125
f 114//114 126//126 115//115
f 127//127 115//115 126//126
f 115//115 127//127 116//116
f 128//128 116//116 127//127
f 116//116 128//128 117//117
f 129//129 117//117 128//128
f 117//117 129//129 118//118
f 130//130 118//118 129//129
f 118//118 130//130 119//119
f 131//131 119//119 130//130
f 119//119 131//131 120//120
f 132//132 120//120 131//131
